<?xml version="1.0" standalone="no"?>
<!DOCTYPE svg PUBLIC "-//W3C//DTD SVG 20010904//EN"
 "http://www.w3.org/TR/2001/REC-SVG-20010904/DTD/svg10.dtd">
<svg version="1.0" xmlns="http://www.w3.org/2000/svg"
 width="300.000000pt" height="420.000000pt" viewBox="0 0 300.000000 420.000000"
 preserveAspectRatio="xMidYMid meet">
<metadata>
Created by potrace 1.10, written by Peter Selinger 2001-2011
</metadata>
<g transform="translate(0.000000,420.000000) scale(0.100000,-0.100000)"
fill="#000000" stroke="none">
<path d="M2935 4098 c3 -57 10 -182 16 -278 6 -96 12 -233 14 -305 2 -71 9
-193 15 -270 6 -77 12 -192 14 -255 2 -63 1 53 -1 259 -2 205 -6 377 -8 381
-3 4 -6 71 -6 149 -1 78 -5 141 -8 141 -4 0 -6 12 -5 28 1 15 -3 35 -7 44 -5
9 -5 19 -1 22 5 3 5 38 0 78 -5 40 -9 81 -10 91 -1 9 -6 17 -11 17 -4 0 -6
-46 -2 -102z"/>
<path d="M111 4144 c0 -11 3 -14 6 -6 3 7 2 16 -1 19 -3 4 -6 -2 -5 -13z"/>
<path d="M2902 4085 c0 -16 2 -22 5 -12 2 9 2 23 0 30 -3 6 -5 -1 -5 -18z"/>
<path d="M97 4050 c3 -11 1 -20 -5 -20 -6 0 -13 8 -15 18 -4 16 -5 16 -6 -1
-1 -20 26 -34 40 -20 10 10 2 43 -11 43 -5 0 -6 -9 -3 -20z"/>
<path d="M127 4063 c-2 -4 2 -24 9 -43 l13 -35 -6 40 c-6 44 -9 50 -16 38z"/>
<path d="M1379 3895 c-137 -34 -293 -126 -343 -203 -68 -105 -114 -368 -79
-459 4 -11 1 -12 -21 -2 -20 10 -29 10 -38 1 -9 -9 -8 -12 4 -12 9 0 33 -9 52
-21 35 -21 48 -15 24 9 -10 10 -10 15 2 22 8 5 19 6 25 3 5 -3 0 4 -13 16 -16
16 -21 29 -16 43 4 12 2 18 -4 14 -12 -7 -11 79 2 91 5 4 5 -2 2 -14 -8 -25 8
-32 18 -8 3 8 -4 21 -17 30 -16 11 -17 15 -6 15 12 0 16 10 15 38 -1 47 27 53
32 7 5 -44 19 -52 18 -11 -1 26 -7 39 -23 47 -28 15 -29 32 -5 55 9 10 17 21
17 25 0 4 3 11 7 14 4 4 3 16 -3 26 -12 24 -1 25 18 2 12 -16 12 -15 2 8 -12
29 3 75 22 64 5 -4 9 -1 9 4 0 16 35 48 73 68 17 10 47 28 64 41 18 13 37 20
43 17 5 -3 10 -2 10 4 0 9 77 36 140 49 49 10 196 10 235 0 55 -14 105 -37
105 -48 0 -5 6 -7 14 -4 8 3 24 -4 35 -15 12 -12 24 -21 27 -21 13 0 94 -71
91 -80 -1 -4 3 -9 8 -10 14 -2 55 -41 55 -52 0 -5 -4 -6 -10 -3 -5 3 -10 -1
-10 -11 0 -12 -6 -15 -21 -11 -13 3 -19 1 -16 -6 2 -7 11 -11 20 -9 9 2 26 -2
38 -8 19 -11 20 -10 14 9 -15 47 4 16 29 -49 15 -38 32 -70 37 -70 4 0 6 -7 3
-15 -4 -10 0 -15 13 -15 21 0 24 -9 24 -85 0 -27 3 -52 8 -55 5 -3 5 -23 1
-45 -4 -22 -8 -36 -9 -31 -1 11 -30 -25 -31 -38 0 -5 6 -3 14 3 11 9 12 6 8
-14 -2 -14 -8 -28 -13 -31 -12 -7 -11 -48 2 -61 7 -7 4 -20 -10 -44 -10 -19
-24 -67 -31 -107 -7 -40 -17 -75 -24 -78 -6 -2 -12 -14 -13 -24 -1 -11 2 -18
8 -15 5 4 9 1 9 -4 0 -6 -4 -11 -10 -11 -5 0 -10 -7 -10 -15 0 -8 -5 -15 -11
-15 -5 0 -8 -4 -5 -9 4 -5 1 -11 -6 -13 -9 -3 -9 -6 0 -12 7 -4 12 -2 12 3 0
6 5 11 10 11 14 0 2 -46 -22 -87 -18 -29 -25 -49 -27 -76 -1 -5 -5 -5 -11 -2
-9 6 -14 -8 -11 -28 1 -5 -3 -6 -8 -3 -11 7 -43 -22 -36 -33 2 -5 -7 -19 -20
-31 -14 -13 -25 -29 -25 -37 0 -7 -4 -13 -9 -13 -5 0 -13 -9 -16 -20 -4 -11
-11 -18 -16 -15 -8 6 -13 -14 -10 -41 1 -7 -14 -25 -32 -41 -18 -16 -37 -38
-41 -48 -5 -13 1 -10 21 9 27 27 47 20 23 -8 -8 -11 -8 -16 0 -21 6 -4 9 -13
6 -21 -3 -8 -1 -14 3 -14 12 0 25 -75 22 -122 -2 -31 0 -37 13 -32 12 4 16 0
16 -16 0 -30 -69 -96 -107 -103 -42 -8 -72 -15 -108 -27 -18 -6 -45 -13 -61
-15 -16 -3 -67 -14 -114 -24 -47 -10 -94 -16 -105 -14 -11 2 -32 5 -46 8 -94
17 -202 109 -257 218 -36 72 -39 82 -29 121 8 30 57 108 57 91 0 -6 4 -4 9 3
5 8 8 64 7 125 -1 62 1 121 5 132 3 11 0 76 -8 145 -8 69 -14 141 -14 160 0
31 -1 33 -12 15 -6 -11 -12 -23 -12 -27 0 -5 -3 -8 -7 -8 -5 0 -15 0 -23 0 -8
0 -15 9 -15 20 0 12 -7 20 -16 20 -12 0 -14 7 -9 31 5 22 2 36 -10 49 -31 34
-62 202 -34 184 6 -3 8 -18 5 -33 l-5 -26 12 28 13 27 27 -28 c32 -33 34 -46
7 -37 -11 4 -20 2 -20 -4 0 -6 6 -11 13 -11 8 0 14 -7 14 -15 0 -11 -4 -12
-14 -3 -20 16 -25 5 -18 -35 5 -25 17 -43 41 -59 36 -24 40 -33 24 -43 -5 -3
-10 -13 -10 -22 0 -13 3 -13 15 -3 23 19 19 64 -7 75 -26 11 -35 49 -18 71 18
21 32 17 25 -6 -4 -11 -2 -20 4 -20 6 0 11 14 11 30 0 19 -5 30 -14 30 -9 0
-16 12 -18 27 -2 22 -15 35 -58 60 -30 18 -58 33 -62 33 -13 0 -9 -59 7 -130
24 -100 35 -131 47 -124 7 4 8 2 4 -5 -10 -16 19 -76 45 -95 11 -7 29 -12 40
-9 14 4 19 0 19 -13 0 -11 3 -122 6 -249 l7 -230 -47 -46 c-54 -55 -59 -89
-23 -166 58 -123 128 -198 233 -249 80 -38 116 -42 214 -18 36 8 110 24 165
35 121 24 172 48 219 100 42 46 45 70 11 106 -18 20 -21 30 -13 40 6 7 6 13 1
13 -17 0 -30 110 -20 168 8 48 20 68 81 142 39 47 81 101 94 121 26 42 65 185
87 319 9 52 25 113 35 134 13 26 16 45 10 56 -5 10 -1 43 12 90 15 58 19 95
15 160 -2 47 -9 95 -14 105 -5 11 -22 46 -38 77 -83 173 -297 343 -462 368
-86 13 -130 10 -234 -15z m685 -371 c3 -8 2 -12 -4 -9 -6 3 -10 10 -10 16 0
14 7 11 14 -7z"/>
<path d="M136 3901 c-4 -5 -1 -13 4 -16 7 -4 8 -19 5 -36 -4 -18 -3 -29 5 -29
6 0 10 -14 8 -32 -1 -18 3 -58 9 -88 19 -96 35 -228 28 -239 -3 -6 -2 -11 3
-11 10 0 22 -93 27 -196 1 -29 5 -56 7 -60 3 -5 9 -31 13 -59 5 -27 10 -59 12
-70 2 -11 6 -42 8 -70 8 -78 12 -99 20 -117 4 -10 4 -25 1 -34 -3 -9 -3 -21 1
-27 7 -12 9 -25 15 -97 1 -25 6 -47 10 -50 3 -3 9 -39 13 -79 3 -41 8 -78 11
-83 3 -4 7 -65 10 -135 3 -71 10 -146 17 -168 6 -22 12 -49 13 -60 1 -11 2
-22 4 -25 8 -21 13 -53 14 -99 2 -50 0 -55 -28 -72 -23 -14 -32 -15 -38 -6 -6
9 -8 8 -8 -3 -1 -19 -50 -57 -50 -38 0 20 -37 312 -65 513 -13 99 -31 230 -40
290 -8 61 -33 234 -55 385 -71 481 -99 684 -103 735 -3 43 -4 41 -5 -18 -2
-84 11 -207 48 -447 16 -102 45 -302 65 -445 20 -143 42 -305 50 -360 7 -55
21 -156 30 -225 9 -69 25 -186 36 -260 25 -176 25 -188 -4 -199 -13 -5 -29
-16 -36 -25 -7 -9 -20 -16 -27 -16 -8 0 -14 -4 -14 -9 0 -8 -15 -14 -45 -20
-5 0 -11 7 -12 16 -3 25 -30 213 -44 306 -6 43 -13 76 -16 74 -4 -4 6 -89 28
-247 19 -140 22 -190 10 -190 -6 0 -11 -7 -11 -15 0 -8 -5 -15 -11 -15 -5 0
-8 4 -5 9 3 5 -5 16 -19 25 -14 9 -25 12 -25 7 0 -5 7 -11 15 -15 18 -7 19
-30 2 -44 -9 -8 -14 -55 -15 -177 -2 -138 0 -165 12 -165 12 0 14 25 14 143
-1 188 3 197 131 281 53 35 146 94 206 132 61 37 148 97 195 131 47 35 119 80
160 99 41 20 98 51 125 69 28 18 59 35 70 39 12 3 41 27 65 52 25 25 37 42 28
38 -10 -3 -18 -10 -18 -15 0 -5 -5 -9 -12 -9 -6 0 -26 -11 -44 -25 -18 -14
-43 -30 -56 -35 -13 -6 -41 -24 -63 -40 -22 -16 -48 -29 -57 -30 -10 0 -18 -4
-18 -10 0 -5 -7 -10 -14 -10 -27 0 -100 -45 -200 -124 -71 -55 -101 -74 -106
-64 -4 7 -11 49 -14 93 -4 44 -11 84 -15 90 -9 11 -17 74 -27 205 -3 47 -19
180 -35 295 -16 116 -34 246 -40 290 -5 44 -17 116 -26 160 -8 44 -17 112 -19
150 -2 39 -7 81 -10 95 -9 34 -13 65 -20 129 -3 29 -10 64 -14 77 -5 13 -7 30
-4 38 3 7 -1 39 -9 69 -8 31 -13 58 -11 60 4 4 -24 158 -30 165 -2 2 -7 -1
-10 -7z"/>
<path d="M1285 3780 c-3 -5 -1 -10 4 -10 6 0 11 5 11 10 0 6 -2 10 -4 10 -3 0
-8 -4 -11 -10z"/>
<path d="M2921 3764 c0 -11 3 -14 6 -6 3 7 2 16 -1 19 -3 4 -6 -2 -5 -13z"/>
<path d="M1356 3748 c-9 -12 -16 -28 -16 -34 0 -7 -6 -14 -12 -17 -10 -3 -10
-7 1 -20 7 -9 17 -14 23 -11 5 3 4 12 -3 20 -9 11 -8 14 7 14 15 0 16 2 5 9
-12 8 -12 13 3 35 20 32 13 35 -8 4z"/>
<path d="M1420 3752 c0 -5 7 -9 15 -9 8 0 12 4 9 9 -3 4 -9 8 -15 8 -5 0 -9
-4 -9 -8z"/>
<path d="M1570 3740 c-9 -6 -10 -10 -3 -10 6 0 15 5 18 10 8 12 4 12 -15 0z"/>
<path d="M1380 3714 c0 -8 5 -12 10 -9 6 4 8 11 5 16 -9 14 -15 11 -15 -7z"/>
<path d="M1431 3720 c-1 -8 -10 -21 -21 -28 -27 -17 -25 -27 7 -29 17 -1 22 2
13 7 -11 7 -11 11 -1 24 7 8 11 21 8 28 -4 9 -6 9 -6 -2z"/>
<path d="M1284 3695 c-3 -14 -10 -22 -15 -19 -5 3 -9 0 -9 -6 0 -25 33 -4 36
23 3 34 -4 35 -12 2z"/>
<path d="M1587 3696 c-3 -7 -22 -16 -41 -20 -20 -4 -36 -11 -36 -16 0 -10 56
7 83 26 10 6 14 15 9 18 -6 3 -12 0 -15 -8z"/>
<path d="M1461 3683 c-1 -27 7 -28 34 -6 20 15 20 15 -2 10 -12 -3 -24 0 -27
7 -2 6 -5 1 -5 -11z"/>
<path d="M1200 3675 c0 -8 2 -15 4 -15 2 0 6 7 10 15 3 8 1 15 -4 15 -6 0 -10
-7 -10 -15z"/>
<path d="M1637 3673 c-12 -11 -7 -19 12 -19 11 0 17 5 14 13 -6 14 -16 17 -26
6z"/>
<path d="M1590 3658 c0 -4 4 -8 9 -8 6 0 12 4 15 8 3 5 -1 9 -9 9 -8 0 -15 -4
-15 -9z"/>
<path d="M1825 3659 c-4 -6 -5 -12 -2 -15 2 -3 7 2 10 11 7 17 1 20 -8 4z"/>
<path d="M1726 3651 c-3 -5 3 -11 15 -14 16 -4 18 -3 8 9 -13 16 -16 17 -23 5z"/>
<path d="M1235 3640 c4 -6 11 -8 16 -5 14 9 11 15 -7 15 -8 0 -12 -5 -9 -10z"/>
<path d="M1918 3643 c7 -3 16 -2 19 1 4 3 -2 6 -13 5 -11 0 -14 -3 -6 -6z"/>
<path d="M1200 3629 c0 -6 -7 -17 -14 -23 -8 -6 -17 -24 -21 -41 -3 -16 -2
-24 1 -17 3 6 9 10 14 7 4 -3 6 4 3 15 -3 11 0 20 5 20 16 0 34 37 22 45 -5 3
-10 1 -10 -6z"/>
<path d="M1155 3620 c-4 -6 -11 -8 -16 -5 -5 4 -16 2 -25 -3 -12 -6 -8 -9 15
-9 16 0 32 6 35 14 6 15 0 17 -9 3z"/>
<path d="M1860 3626 c0 -2 11 -6 25 -8 14 -3 25 -1 25 3 0 5 -11 9 -25 9 -14
0 -25 -2 -25 -4z"/>
<path d="M1047 3569 c-9 -17 -21 -27 -27 -24 -5 3 -10 2 -10 -2 0 -5 10 -14
23 -22 21 -13 21 -13 7 4 -13 16 -13 18 0 13 11 -3 15 -19 15 -53 0 -27 5 -50
12 -52 7 -3 10 5 7 19 -2 13 -2 17 2 10 3 -7 14 -17 25 -22 16 -9 19 -7 19 9
0 13 -5 18 -13 15 -18 -7 -37 17 -32 41 2 11 4 26 4 33 2 22 20 12 19 -10 -1
-36 1 -48 11 -48 10 0 4 60 -10 95 -6 18 -9 16 -19 -13 -8 -22 -16 -30 -22
-24 -6 6 -6 18 2 32 18 34 7 33 -13 -1z"/>
<path d="M1129 3581 c8 -5 10 -14 6 -22 -6 -11 -5 -11 5 -2 14 12 6 33 -13 33
-8 0 -7 -3 2 -9z"/>
<path d="M1205 3580 c-3 -5 -1 -10 5 -10 6 0 8 -5 4 -12 -4 -7 -3 -8 4 -4 6 4
9 13 5 21 -6 18 -10 19 -18 5z"/>
<path d="M1865 3570 c-4 -6 -11 -7 -17 -4 -7 4 -8 2 -4 -5 6 -9 11 -9 22 0 14
11 18 19 10 19 -3 0 -8 -5 -11 -10z"/>
<path d="M1900 3566 c0 -9 5 -16 10 -16 6 0 10 4 10 9 0 6 -4 13 -10 16 -5 3
-10 -1 -10 -9z"/>
<path d="M1960 3555 c0 -8 2 -15 4 -15 2 0 6 7 10 15 3 8 1 15 -4 15 -6 0 -10
-7 -10 -15z"/>
<path d="M1130 3516 c5 -13 6 -27 2 -31 -4 -4 3 -2 16 4 12 6 22 17 21 24 0 9
-2 9 -6 0 -2 -7 -9 -13 -15 -13 -6 0 -8 6 -5 14 3 8 -1 17 -8 20 -11 4 -12 0
-5 -18z"/>
<path d="M1194 3520 c0 -13 4 -16 10 -10 7 7 7 13 0 20 -6 6 -10 3 -10 -10z"/>
<path d="M1408 3533 c7 -3 16 -2 19 1 4 3 -2 6 -13 5 -11 0 -14 -3 -6 -6z"/>
<path d="M997 3473 c-3 -5 -1 -17 4 -28 7 -17 8 -17 8 8 1 27 -4 34 -12 20z"/>
<path d="M1165 3460 c-3 -5 -1 -10 4 -10 6 0 11 5 11 10 0 6 -2 10 -4 10 -3 0
-8 -4 -11 -10z"/>
<path d="M2070 3441 c0 -5 5 -13 10 -16 6 -3 10 -2 10 4 0 5 -4 13 -10 16 -5
3 -10 2 -10 -4z"/>
<path d="M1150 3425 c-7 -9 -10 -18 -6 -22 3 -3 6 -1 6 6 0 7 6 11 13 8 8 -3
14 1 14 9 0 18 -11 18 -27 -1z"/>
<path d="M1510 3426 c0 -2 7 -7 16 -10 8 -3 12 -2 9 4 -6 10 -25 14 -25 6z"/>
<path d="M1617 3416 c-4 -10 1 -12 14 -9 23 6 24 9 5 16 -8 3 -17 0 -19 -7z"/>
<path d="M92 3400 c0 -14 2 -19 5 -12 2 6 2 18 0 25 -3 6 -5 1 -5 -13z"/>
<path d="M1000 3410 c0 -5 5 -10 10 -10 6 0 10 5 10 10 0 6 -4 10 -10 10 -5 0
-10 -4 -10 -10z"/>
<path d="M1047 3412 c-3 -4 0 -11 7 -17 11 -10 46 -19 46 -12 0 10 -49 36 -53
29z"/>
<path d="M1107 3409 c7 -9 10 -19 6 -22 -3 -4 -1 -7 5 -7 17 0 15 16 -5 31
-16 12 -17 12 -6 -2z"/>
<path d="M1774 3412 c3 -6 3 -12 -1 -15 -5 -2 -2 -2 6 0 7 2 21 -2 29 -9 12
-10 14 -10 8 -1 -4 7 -16 18 -28 24 -12 7 -18 7 -14 1z"/>
<path d="M1956 3393 c-6 -14 -5 -15 5 -6 7 7 10 15 7 18 -3 3 -9 -2 -12 -12z"/>
<path d="M1896 3391 c-4 -6 -2 -11 4 -11 6 0 8 -5 5 -10 -4 -6 -11 -7 -17 -4
-7 5 -8 2 -3 -5 6 -10 11 -9 23 3 12 11 13 19 5 27 -8 8 -13 8 -17 0z"/>
<path d="M1845 3370 c3 -5 8 -10 11 -10 2 0 4 5 4 10 0 6 -5 10 -11 10 -5 0
-7 -4 -4 -10z"/>
<path d="M1110 3355 c0 -8 2 -15 4 -15 2 0 6 7 10 15 3 8 1 15 -4 15 -6 0 -10
-7 -10 -15z"/>
<path d="M1006 3330 c2 -51 3 -55 13 -44 10 10 3 74 -8 74 -3 0 -5 -13 -5 -30z"/>
<path d="M1035 3350 c3 -5 14 -10 23 -10 15 0 15 2 2 10 -20 13 -33 13 -25 0z"/>
<path d="M1926 3343 c-6 -14 -5 -15 5 -6 7 7 10 15 7 18 -3 3 -9 -2 -12 -12z"/>
<path d="M1296 3331 c-3 -5 1 -11 9 -14 9 -4 12 -1 8 9 -6 16 -10 17 -17 5z"/>
<path d="M1547 3319 c7 -7 15 -10 18 -7 3 3 -2 9 -12 12 -14 6 -15 5 -6 -5z"/>
<path d="M1758 3323 c7 -3 16 -2 19 1 4 3 -2 6 -13 5 -11 0 -14 -3 -6 -6z"/>
<path d="M2030 3320 c0 -5 5 -10 11 -10 5 0 7 5 4 10 -3 6 -8 10 -11 10 -2 0
-4 -4 -4 -10z"/>
<path d="M1095 3310 c3 -5 8 -10 11 -10 2 0 4 5 4 10 0 6 -5 10 -11 10 -5 0
-7 -4 -4 -10z"/>
<path d="M1935 3299 c-4 -6 -5 -12 -2 -15 2 -3 7 2 10 11 7 17 1 20 -8 4z"/>
<path d="M1073 3260 c-3 -11 -9 -20 -13 -20 -5 0 -7 -7 -6 -15 4 -29 12 -24
23 15 5 22 8 40 6 40 -3 0 -7 -9 -10 -20z"/>
<path d="M1030 3261 c0 -7 -5 -9 -12 -5 -7 5 -8 3 -3 -5 5 -9 10 -10 18 -2 6
6 8 14 4 18 -4 3 -7 1 -7 -6z"/>
<path d="M1938 3253 c7 -3 16 -2 19 1 4 3 -2 6 -13 5 -11 0 -14 -3 -6 -6z"/>
<path d="M1400 3230 c8 -5 22 -10 31 -10 9 0 24 -9 34 -20 22 -24 32 -25 52
-5 9 10 23 13 35 9 14 -4 18 -3 13 6 -4 6 -16 9 -27 7 -12 -4 -18 -1 -15 6 3
8 -7 13 -27 14 -29 1 -30 1 -8 -9 12 -6 22 -15 22 -20 0 -5 -18 1 -40 12 -41
21 -100 29 -70 10z"/>
<path d="M1303 3214 c-40 -17 -42 -24 -5 -19 15 2 30 4 33 4 3 1 6 8 6 16 0 8
-1 15 -1 14 -1 0 -16 -7 -33 -15z"/>
<path d="M1356 3212 c-7 -11 51 -28 61 -18 4 3 -3 6 -13 6 -11 0 -25 5 -31 11
-7 7 -13 7 -17 1z"/>
<path d="M1660 3210 c0 -6 7 -10 15 -10 8 0 15 2 15 4 0 2 -7 6 -15 10 -8 3
-15 1 -15 -4z"/>
<path d="M2050 3211 c0 -7 -5 -9 -12 -5 -7 5 -8 3 -3 -5 5 -9 10 -10 18 -2 6
6 8 14 4 18 -4 3 -7 1 -7 -6z"/>
<path d="M151 3194 c0 -11 3 -14 6 -6 3 7 2 16 -1 19 -3 4 -6 -2 -5 -13z"/>
<path d="M1859 3188 c-1 -4 -2 -14 -3 -20 -1 -7 -5 -16 -11 -20 -5 -4 4 -8 21
-8 17 0 37 7 44 15 15 18 34 20 24 3 -5 -8 -2 -9 10 -5 10 4 25 7 33 7 9 0 13
3 9 8 -12 11 -126 30 -127 20z"/>
<path d="M1000 3182 c0 -6 10 -27 23 -45 17 -25 24 -51 26 -93 1 -32 4 -61 7
-63 3 -3 4 43 2 102 -2 84 -6 107 -16 107 -12 0 -12 -3 -2 -15 17 -20 1 -19
-22 2 -10 9 -18 11 -18 5z"/>
<path d="M1170 3180 c0 -5 5 -10 10 -10 6 0 10 5 10 10 0 6 -4 10 -10 10 -5 0
-10 -4 -10 -10z"/>
<path d="M1800 3186 c0 -9 30 -14 35 -6 4 6 -3 10 -14 10 -12 0 -21 -2 -21 -4z"/>
<path d="M1534 3166 c11 -9 24 -16 30 -16 12 0 7 5 -24 19 -24 11 -24 11 -6
-3z"/>
<path d="M1335 3144 c-22 -8 -50 -13 -62 -11 -12 2 -20 1 -17 -4 2 -4 -2 -12
-11 -16 -10 -6 1 -9 32 -11 26 -1 51 -6 57 -12 15 -15 30 -12 17 3 -6 8 -8 17
-4 20 3 4 -2 7 -13 8 -11 0 -2 7 20 15 23 8 55 12 80 8 43 -6 106 -33 106 -46
0 -13 -12 -9 -32 9 -13 12 -40 17 -88 19 l-70 3 16 -24 c23 -36 46 -40 70 -12
20 23 22 23 50 9 28 -15 28 -15 6 -23 -52 -20 -118 -21 -151 -4 l-33 17 17
-30 c11 -18 32 -34 54 -41 37 -12 122 -11 115 1 -3 4 12 10 33 14 34 6 35 8
14 16 -12 4 -27 6 -32 2 -9 -5 -37 -13 -79 -21 -14 -2 -36 0 -50 6 -22 8 -18
10 26 10 28 1 65 8 83 17 25 13 35 13 47 4 12 -11 13 -10 8 5 -5 11 -3 16 2
12 6 -3 16 -2 23 2 19 12 -51 50 -112 62 -63 11 -73 11 -122 -7z"/>
<path d="M1774 3121 c-38 -23 -62 -81 -44 -108 10 -16 11 -16 7 4 -3 14 1 24
11 28 13 5 14 8 3 14 -10 6 -9 10 4 15 10 3 15 12 11 21 -3 8 -2 15 2 15 9 0
50 29 42 30 -3 0 -19 -9 -36 -19z"/>
<path d="M1958 3130 c18 -15 62 -29 62 -20 0 6 -5 10 -11 10 -5 0 -8 3 -6 8 3
4 -8 7 -24 7 -16 1 -26 -2 -21 -5z"/>
<path d="M1783 3088 c-11 -13 -19 -33 -18 -45 1 -13 -2 -23 -7 -23 -17 0 -7
-28 22 -55 17 -16 30 -24 30 -19 0 6 -11 20 -25 32 -28 24 -25 38 9 52 20 8
20 9 1 10 -20 1 -20 1 -1 15 17 13 20 12 30 -8 15 -30 50 -34 69 -7 9 13 20
18 31 14 21 -8 20 -20 -1 -33 -23 -14 2 -14 27 -1 13 7 19 6 24 -5 3 -8 11
-15 18 -15 9 0 8 3 -2 10 -10 7 -11 10 -2 10 24 0 -15 56 -52 74 -52 24 -128
21 -153 -6z m146 -6 c19 -9 37 -24 39 -32 4 -12 1 -12 -14 2 -24 21 -74 34
-74 19 0 -6 -12 -11 -27 -11 -22 0 -25 2 -13 10 13 8 12 10 -3 10 -10 0 -27
-5 -39 -11 -11 -6 -22 -8 -25 -6 -10 10 53 36 87 37 19 0 50 -8 69 -18z"/>
<path d="M1668 3063 c6 -2 18 -2 25 0 6 3 1 5 -13 5 -14 0 -19 -2 -12 -5z"/>
<path d="M1545 3024 c-37 -22 -53 -31 -110 -54 -13 -6 -15 -9 -5 -9 22 -1 160
67 160 79 0 12 3 13 -45 -16z"/>
<path d="M1090 3025 c-7 -9 -8 -15 -2 -15 5 0 12 7 16 15 3 8 4 15 2 15 -2 0
-9 -7 -16 -15z"/>
<path d="M1246 3015 c4 -8 12 -15 20 -15 7 0 17 -6 21 -13 11 -17 105 -39 118
-26 8 8 3 10 -30 9 -3 0 -32 13 -65 30 -68 35 -71 35 -64 15z"/>
<path d="M1666 3013 c-4 -9 -3 -20 1 -24 4 -4 9 3 9 17 2 28 -1 31 -10 7z"/>
<path d="M1000 3016 c0 -2 8 -10 18 -17 15 -13 16 -12 3 4 -13 16 -21 21 -21
13z"/>
<path d="M1589 3001 c-33 -37 -31 -44 4 -17 20 16 37 30 37 32 0 10 -27 0 -41
-15z"/>
<path d="M1786 3012 c-3 -4 12 -8 32 -9 28 0 32 1 17 7 -27 11 -43 12 -49 2z"/>
<path d="M1890 2995 c22 -12 22 -12 3 -17 -11 -3 -35 1 -53 8 -33 14 -52 11
-34 -5 25 -22 121 -41 109 -21 -4 6 9 11 32 11 23 1 29 3 16 6 -24 5 -31 19
-13 25 5 2 -11 3 -36 4 -42 1 -44 0 -24 -11z"/>
<path d="M1443 2942 c-9 -6 -7 -11 7 -20 12 -7 20 -8 20 -2 0 5 -5 10 -11 10
-5 0 -7 5 -4 10 7 12 4 12 -12 2z"/>
<path d="M1530 2940 c-13 -8 -13 -10 2 -10 9 0 20 5 23 10 8 13 -5 13 -25 0z"/>
<path d="M1969 2930 c-11 -12 -29 -16 -57 -14 -23 1 -42 -1 -42 -5 0 -4 16 -8
37 -9 20 -2 39 -5 43 -7 12 -8 54 35 44 44 -5 4 -16 0 -25 -9z"/>
<path d="M1086 2929 c7 -8 14 -23 16 -34 4 -19 4 -19 10 1 4 15 -1 25 -16 34
-18 11 -19 11 -10 -1z"/>
<path d="M1756 2917 c3 -10 9 -15 12 -12 3 3 0 11 -7 18 -10 9 -11 8 -5 -6z"/>
<path d="M1485 2885 c-16 -8 -26 -14 -22 -15 4 0 -9 -15 -30 -32 -21 -18 -39
-36 -41 -40 -2 -4 -11 -4 -19 -1 -12 5 -15 2 -10 -10 4 -10 2 -17 -5 -17 -6 0
-9 -2 -6 -5 3 -3 17 1 31 8 15 8 24 17 20 20 -3 4 0 7 8 7 8 0 33 18 54 40 28
28 45 39 60 35 11 -3 14 -2 7 1 -6 3 -10 10 -6 15 7 12 -5 10 -41 -6z"/>
<path d="M1553 2879 c4 -13 7 -27 7 -31 0 -5 15 -8 33 -7 l32 1 -28 12 c-15 7
-26 14 -23 17 2 2 -3 11 -12 18 -14 13 -15 12 -9 -10z"/>
<path d="M1673 2870 c-1 -11 2 -20 6 -20 5 0 11 9 14 20 3 12 0 20 -7 20 -6 0
-12 -9 -13 -20z"/>
<path d="M1779 2837 c14 -28 39 -67 56 -85 16 -18 35 -47 42 -65 l12 -32 0 28
c1 20 -9 38 -29 57 -16 15 -30 34 -30 41 0 7 -7 21 -17 31 -10 11 -12 18 -4
18 7 0 4 7 -6 18 -44 44 -50 42 -24 -11z"/>
<path d="M1240 2860 c0 -5 5 -10 11 -10 5 0 7 5 4 10 -3 6 -8 10 -11 10 -2 0
-4 -4 -4 -10z"/>
<path d="M1349 2853 c-13 -16 -12 -17 4 -4 16 13 21 21 13 21 -2 0 -10 -8 -17
-17z"/>
<path d="M1494 2834 c-7 -28 13 -50 56 -60 14 -3 45 -15 69 -26 38 -18 48 -19
85 -8 46 14 90 40 66 40 -8 -1 -26 -7 -40 -15 -36 -21 -88 -18 -117 5 -14 11
-36 20 -49 20 -38 0 -61 19 -56 46 6 32 -6 31 -14 -2z"/>
<path d="M1278 2843 c7 -3 16 -2 19 1 4 3 -2 6 -13 5 -11 0 -14 -3 -6 -6z"/>
<path d="M1720 2830 c0 -5 6 -10 14 -10 8 0 18 5 21 10 3 6 -3 10 -14 10 -12
0 -21 -4 -21 -10z"/>
<path d="M1608 2793 c7 -3 16 -2 19 1 4 3 -2 6 -13 5 -11 0 -14 -3 -6 -6z"/>
<path d="M1647 2789 c7 -7 15 -10 18 -7 3 3 -2 9 -12 12 -14 6 -15 5 -6 -5z"/>
<path d="M2 2740 c0 -14 2 -19 5 -12 2 6 2 18 0 25 -3 6 -5 1 -5 -13z"/>
<path d="M1400 2730 c-14 -20 -19 -37 -15 -51 5 -14 3 -19 -3 -15 -6 4 -8 -2
-5 -14 6 -23 19 -26 26 -7 3 9 10 7 25 -6 13 -12 22 -15 27 -8 3 6 11 11 16
11 6 0 8 -4 5 -9 -16 -26 200 -65 229 -41 8 7 26 10 40 8 14 -3 28 -1 31 3 3
5 14 9 25 9 11 0 17 5 14 10 -4 6 -21 8 -39 5 -18 -4 -60 1 -97 11 -35 9 -74
16 -86 16 -12 -1 -25 3 -28 8 -4 6 -15 6 -31 0 -38 -15 -90 -12 -104 5 -7 8
-16 12 -21 9 -5 -3 -9 -1 -9 5 0 5 5 13 11 16 5 4 8 12 6 18 -2 7 2 20 11 30
8 9 10 17 4 17 -6 0 -20 -13 -32 -30z m10 -20 c0 -5 -5 -10 -11 -10 -5 0 -7 5
-4 10 3 6 8 10 11 10 2 0 4 -4 4 -10z m185 -80 c110 -13 132 -20 87 -30 -35
-8 -169 14 -186 31 -12 11 -13 11 99 -1z"/>
<path d="M1534 2731 c-5 -5 -20 -11 -34 -14 -14 -2 0 -5 30 -6 30 0 71 -5 90
-10 49 -13 181 -22 153 -11 -22 9 -48 13 -158 25 -33 4 -63 11 -66 16 -3 5 -9
5 -15 0z"/>
<path d="M1810 2702 c0 -5 7 -25 15 -43 l14 -34 1 31 c0 17 -7 37 -15 44 -9 7
-15 8 -15 2z"/>
<path d="M1450 2679 c0 -5 5 -7 10 -4 6 3 10 8 10 11 0 2 -4 4 -10 4 -5 0 -10
-5 -10 -11z"/>
<path d="M1805 2550 c-10 -11 -15 -20 -11 -20 11 0 39 30 34 36 -3 2 -13 -5
-23 -16z"/>
<path d="M1500 2535 c7 -9 15 -13 17 -11 7 7 -7 26 -19 26 -6 0 -6 -6 2 -15z"/>
<path d="M1533 2526 c4 -13 61 -26 130 -29 61 -3 61 10 0 18 -27 3 -67 10 -91
15 -31 5 -42 5 -39 -4z"/>
<path d="M1460 2469 c0 -5 9 -9 20 -9 11 0 20 2 20 4 0 2 -9 6 -20 9 -11 3
-20 1 -20 -4z"/>
<path d="M1510 2459 c0 -3 14 -6 30 -7 17 0 30 4 30 9 0 5 -13 8 -30 7 -16 -1
-30 -5 -30 -9z"/>
<path d="M1580 2460 c0 -5 5 -10 11 -10 5 0 7 5 4 10 -3 6 -8 10 -11 10 -2 0
-4 -4 -4 -10z"/>
<path d="M1203 2416 c-7 -8 -8 -18 -2 -27 5 -8 9 -12 10 -9 0 3 2 15 5 28 4
25 3 26 -13 8z"/>
<path d="M1240 2390 c0 -5 5 -10 10 -10 6 0 10 5 10 10 0 6 -4 10 -10 10 -5 0
-10 -4 -10 -10z"/>
<path d="M1486 2392 c-2 -4 11 -6 30 -4 19 2 34 6 34 8 0 8 -59 4 -64 -4z"/>
<path d="M1730 2389 c0 -5 5 -7 10 -4 6 3 10 8 10 11 0 2 -4 4 -10 4 -5 0 -10
-5 -10 -11z"/>
<path d="M1270 2369 c0 -5 4 -8 9 -5 4 3 16 -3 26 -14 46 -51 219 -108 280
-93 24 6 14 9 -47 14 -80 7 -159 37 -224 86 -34 25 -44 28 -44 12z"/>
<path d="M1618 2373 c7 -3 16 -2 19 1 4 3 -2 6 -13 5 -11 0 -14 -3 -6 -6z"/>
<path d="M1245 2361 c-3 -5 -1 -12 5 -16 5 -3 10 1 10 9 0 18 -6 21 -15 7z"/>
<path d="M1704 2348 l-19 -23 23 19 c21 18 27 26 19 26 -2 0 -12 -10 -23 -22z"/>
<path d="M1825 2352 c16 -15 173 -72 245 -88 36 -8 115 -23 175 -34 61 -10
186 -35 279 -55 120 -27 174 -35 185 -28 10 7 26 7 42 1 21 -7 30 -20 38 -54
8 -32 20 -50 40 -61 32 -19 63 -63 80 -115 7 -20 30 -71 52 -113 47 -92 55
-62 9 34 -17 34 -28 67 -24 72 3 5 2 8 -3 7 -4 -2 -10 2 -12 7 -15 43 -47 89
-81 116 -25 20 -40 41 -40 54 0 27 -32 65 -54 65 -10 0 -15 4 -12 9 3 5 -12 4
-34 -1 -32 -8 -54 -7 -101 7 -34 9 -73 18 -87 20 -15 2 -28 4 -29 6 -2 1 -6 2
-10 4 -39 10 -63 15 -88 19 -16 2 -30 5 -30 6 0 3 -41 11 -75 14 -69 6 -136
18 -178 32 -23 8 -58 14 -77 14 -19 0 -35 4 -35 8 0 7 -47 26 -92 38 -5 1 -9
2 -10 4 -2 1 -10 3 -19 5 -9 1 -27 6 -40 10 -16 5 -21 4 -14 -3z"/>
<path d="M390 2279 c0 -11 4 -18 10 -14 5 3 7 12 3 20 -7 21 -13 19 -13 -6z"/>
<path d="M1583 2293 c33 -2 55 -8 52 -14 -10 -14 1 -11 15 6 11 13 4 15 -56
13 l-69 -2 58 -3z"/>
<path d="M23 2255 c0 -22 2 -30 4 -17 2 12 2 30 0 40 -3 9 -5 -1 -4 -23z"/>
<path d="M1852 2260 c0 -14 2 -19 5 -12 2 6 2 18 0 25 -3 6 -5 1 -5 -13z"/>
<path d="M402 2225 c0 -16 2 -22 5 -12 2 9 2 23 0 30 -3 6 -5 -1 -5 -18z"/>
<path d="M1231 2246 c2 -2 15 -9 29 -15 24 -11 24 -11 6 3 -16 13 -49 24 -35
12z"/>
<path d="M1877 2233 c-4 -3 -7 -11 -7 -17 0 -6 5 -5 12 2 6 6 9 14 7 17 -3 3
-9 2 -12 -2z"/>
<path d="M1297 2209 c7 -7 15 -10 18 -7 3 3 -2 9 -12 12 -14 6 -15 5 -6 -5z"/>
<path d="M1645 2184 c-33 -14 -46 -22 -30 -18 31 6 118 43 100 42 -5 0 -37
-11 -70 -24z"/>
<path d="M1358 2188 c5 -5 16 -8 23 -6 8 3 3 7 -10 11 -17 4 -21 3 -13 -5z"/>
<path d="M1951 2184 c0 -11 3 -14 6 -6 3 7 2 16 -1 19 -3 4 -6 -2 -5 -13z"/>
<path d="M2160 2186 c0 -9 5 -16 10 -16 6 0 10 4 10 9 0 6 -4 13 -10 16 -5 3
-10 -1 -10 -9z"/>
<path d="M1430 2165 c19 -7 62 -13 95 -13 l60 0 -85 14 c-104 16 -115 16 -70
-1z"/>
<path d="M1863 2155 c32 -28 49 -32 41 -10 -4 8 -15 15 -25 15 -10 0 -19 5
-19 10 0 6 -6 10 -12 10 -7 0 0 -12 15 -25z"/>
<path d="M1910 2170 c0 -5 5 -10 10 -10 6 0 10 5 10 10 0 6 -4 10 -10 10 -5 0
-10 -4 -10 -10z"/>
<path d="M2125 2150 c-19 -8 -19 -9 3 -9 12 -1 22 4 22 9 0 6 -1 10 -2 9 -2 0
-12 -4 -23 -9z"/>
<path d="M2210 2130 c-8 -5 -10 -10 -5 -10 6 0 17 5 25 10 8 5 11 10 5 10 -5
0 -17 -5 -25 -10z"/>
<path d="M2015 2120 c-3 -5 -2 -10 4 -10 5 0 13 5 16 10 3 6 2 10 -4 10 -5 0
-13 -4 -16 -10z"/>
<path d="M2158 2123 c6 -2 18 -2 25 0 6 3 1 5 -13 5 -14 0 -19 -2 -12 -5z"/>
<path d="M1288 1983 c7 -3 16 -2 19 1 4 3 -2 6 -13 5 -11 0 -14 -3 -6 -6z"/>
<path d="M2770 1975 c-8 -9 -8 -15 -2 -15 12 0 26 19 19 26 -2 2 -10 -2 -17
-11z"/>
<path d="M2684 1847 c-12 -17 -30 -50 -40 -72 -9 -22 -19 -43 -21 -47 -2 -5 0
-8 5 -8 5 0 17 20 26 45 10 24 28 60 41 80 14 19 21 35 17 35 -4 0 -17 -15
-28 -33z"/>
<path d="M2740 1760 c-18 -12 -2 -12 25 0 13 6 15 9 5 9 -8 0 -22 -4 -30 -9z"/>
<path d="M2700 1732 c0 -4 -11 -19 -23 -32 -13 -14 -39 -48 -58 -75 -20 -28
-45 -54 -57 -60 -20 -9 -21 -14 -15 -60 12 -81 8 -227 -6 -254 -9 -15 -14 -77
-17 -179 -4 -186 -10 -232 -32 -239 -10 -2 -26 -9 -37 -13 -16 -7 -12 -9 15
-7 23 1 34 -2 33 -10 -2 -7 2 -13 7 -13 33 0 -16 -138 -75 -208 -31 -38 -114
-94 -127 -86 -5 3 -12 -4 -15 -16 -4 -14 -8 -18 -13 -10 -6 9 -13 9 -31 -1
-22 -13 -17 -14 56 -17 44 -2 96 1 115 7 19 6 58 10 87 10 28 -1 65 2 82 6 25
5 29 10 21 23 -5 9 -23 67 -41 127 -35 119 -36 139 -31 440 3 149 3 150 30
175 15 14 23 22 18 18 -16 -12 -26 -9 -26 7 0 8 4 15 8 15 12 0 1 217 -11 237
-5 7 6 28 25 50 19 21 46 55 62 76 15 20 38 48 52 62 26 26 30 35 14 35 -5 0
-10 -3 -10 -8z m-140 -1152 c11 -41 20 -78 20 -81 0 -3 -28 -7 -62 -8 -71 -2
-121 -7 -149 -16 -10 -4 -19 -2 -19 4 0 5 9 13 20 16 11 3 20 11 20 16 0 5 7
9 15 9 8 0 15 6 15 13 0 6 13 26 28 42 15 17 38 45 51 63 13 19 27 30 32 25 5
-5 18 -42 29 -83z"/>
<path d="M168 1703 c7 -3 16 -2 19 1 4 3 -2 6 -13 5 -11 0 -14 -3 -6 -6z"/>
<path d="M1621 1702 c-1 -7 -5 -11 -9 -8 -5 3 -9 -1 -9 -9 0 -8 5 -15 10 -15
5 0 7 -8 5 -18 -5 -16 -2 -17 17 -8 15 7 22 17 19 30 -4 24 -14 34 -15 15 0
-8 -4 -6 -9 6 -5 11 -9 14 -9 7z"/>
<path d="M2869 1693 c-13 -16 -12 -17 4 -4 9 7 17 15 17 17 0 8 -8 3 -21 -13z"/>
<path d="M2700 1605 c-11 -13 -10 -14 4 -9 9 3 16 10 16 15 0 13 -6 11 -20 -6z"/>
<path d="M100 1520 c0 -5 5 -10 11 -10 5 0 7 5 4 10 -3 6 -8 10 -11 10 -2 0
-4 -4 -4 -10z"/>
<path d="M324 1523 c6 -6 126 -50 171 -63 17 -5 41 -12 54 -16 16 -5 22 -4 17
4 -3 6 -29 15 -57 21 -27 6 -63 18 -78 26 -29 14 -117 38 -107 28z"/>
<path d="M130 1506 c0 -2 8 -10 18 -17 15 -13 16 -12 3 4 -13 16 -21 21 -21
13z"/>
<path d="M207 1452 c-6 -8 105 -76 141 -87 23 -7 24 -7 5 12 -10 11 -21 15
-24 11 -5 -7 -44 18 -96 62 -15 12 -20 13 -26 2z"/>
<path d="M590 1425 c7 -8 17 -15 22 -15 6 0 5 7 -2 15 -7 8 -17 15 -22 15 -6
0 -5 -7 2 -15z"/>
<path d="M630 1411 c0 -5 5 -13 10 -16 6 -3 10 -2 10 4 0 5 -4 13 -10 16 -5 3
-10 2 -10 -4z"/>
<path d="M660 1376 c0 -4 11 -21 25 -38 25 -30 34 -55 15 -43 -6 3 1 -15 15
-41 20 -37 25 -62 25 -116 0 -61 19 -138 35 -138 3 0 1 9 -5 21 -7 11 -14 55
-16 97 -7 103 -33 197 -66 235 -15 18 -27 28 -28 23z"/>
<path d="M2965 1360 c-8 -13 5 -13 25 0 13 8 13 10 -2 10 -9 0 -20 -4 -23 -10z"/>
<path d="M13 1353 c-9 -3 -10 -10 -4 -22 12 -22 21 -161 26 -399 3 -144 8
-190 20 -215 19 -37 42 -113 43 -142 0 -11 4 -33 7 -50 4 -16 11 -59 17 -95 5
-36 11 -74 14 -85 9 -47 26 -125 42 -190 9 -38 15 -76 13 -84 -1 -7 1 -20 5
-30 4 -9 8 -20 8 -26 1 -5 8 -11 16 -13 13 -2 12 15 -12 110 -15 62 -44 209
-63 326 -25 144 -44 229 -61 265 -22 48 -24 65 -24 198 0 146 -15 367 -28 425
-4 18 -12 29 -19 27z"/>
<path d="M590 1357 c0 -3 12 -12 26 -22 15 -9 23 -12 20 -6 -7 11 -46 35 -46
28z"/>
<path d="M2918 1343 c6 -2 18 -2 25 0 6 3 1 5 -13 5 -14 0 -19 -2 -12 -5z"/>
<path d="M2844 1328 c-7 -10 15 -9 41 2 17 7 16 8 -8 7 -16 -1 -31 -5 -33 -9z"/>
<path d="M1930 1209 c-14 -5 -73 -20 -130 -33 -58 -14 -92 -25 -76 -25 41 -1
30 -8 -24 -15 -60 -8 -179 -32 -185 -37 -7 -7 17 -79 26 -79 4 0 11 5 15 12 4
7 3 8 -4 4 -7 -4 -12 -1 -12 7 0 11 24 19 83 30 70 13 91 14 127 3 24 -7 39
-15 34 -18 -5 -3 -63 -16 -129 -29 -66 -12 -121 -23 -123 -25 -9 -6 40 -84 49
-78 6 3 3 11 -7 19 -16 11 -11 14 41 25 33 6 74 15 90 19 19 5 45 2 72 -8 23
-8 46 -11 50 -7 4 5 2 11 -5 13 -6 3 -10 9 -6 14 8 14 24 11 24 -6 0 -16 12
-18 50 -4 23 8 22 8 -7 6 -25 -3 -30 -1 -22 9 6 7 19 11 30 9 10 -2 19 0 19 6
0 13 27 11 36 -3 5 -8 2 -9 -9 -5 -10 4 -17 2 -17 -4 0 -7 10 -9 28 -4 56 14
58 14 56 -13 0 -16 -9 -29 -22 -35 -12 -6 -22 -15 -22 -21 0 -6 5 -5 12 2 18
18 28 15 28 -9 0 -12 4 -17 11 -14 7 5 9 -3 7 -21 -3 -29 -12 -33 -101 -49
-21 -3 -35 -10 -32 -15 7 -11 -24 -42 -36 -35 -13 9 -11 23 4 28 16 5 -43 -3
-66 -9 -13 -4 -12 1 8 22 14 15 24 28 22 30 -1 2 -45 -8 -97 -21 -52 -14 -102
-25 -112 -25 -13 0 -18 -8 -18 -31 0 -24 3 -29 18 -25 104 31 156 38 203 28
38 -9 56 -9 88 2 51 19 152 31 131 16 -12 -8 -13 -12 -2 -19 15 -9 -27 -28
-83 -38 -47 -8 -45 -16 2 -9 34 4 43 2 46 -12 3 -12 5 -11 6 6 1 12 7 22 16
22 18 0 20 -16 3 -24 -7 -4 -3 -4 9 -2 18 3 21 0 19 -23 -3 -23 -10 -28 -57
-39 -30 -7 -61 -14 -69 -16 -97 -26 -119 -24 -85 4 19 15 14 23 -9 14 -9 -3
-16 -12 -16 -20 0 -13 -85 -44 -122 -44 -11 0 -29 -5 -40 -11 -12 -7 -18 -7
-14 -1 3 6 0 13 -6 16 -9 4 -8 5 2 4 8 -1 29 1 45 5 17 4 45 9 64 12 33 6 77
24 56 24 -5 0 -39 -6 -75 -14 -85 -19 -110 -19 -110 0 0 8 -4 15 -10 15 -10 0
-6 -62 4 -79 3 -5 43 0 88 11 45 10 88 16 95 14 7 -3 15 -1 18 5 4 5 10 7 14
4 5 -2 32 2 62 10 30 8 83 21 118 29 35 9 66 18 69 21 3 3 -2 51 -12 108 -9
56 -26 158 -37 227 -22 139 -39 202 -54 206 -5 1 -21 -2 -35 -7z m35 -26 c4
-10 8 -34 10 -53 1 -19 6 -43 10 -52 4 -11 3 -18 -5 -18 -6 0 -8 -5 -4 -12 4
-6 3 -8 -4 -4 -14 8 -142 -23 -162 -40 -10 -8 -21 -10 -29 -4 -8 4 -21 6 -29
2 -9 -3 -13 -1 -9 5 4 7 -11 6 -41 -3 -26 -8 -72 -17 -102 -20 -54 -4 -54 -4
-25 10 25 12 99 28 176 39 10 2 23 8 30 14 8 5 20 12 28 15 20 6 22 36 3 42
-10 3 -34 1 -54 -3 -21 -5 -38 -5 -38 -1 0 4 -17 4 -37 -1 -21 -5 -58 -12 -83
-15 -25 -3 -51 -11 -59 -17 -11 -10 -13 -9 -9 2 5 17 31 25 131 45 45 9 67 10
67 3 0 -6 11 0 24 12 18 17 133 58 197 70 4 0 10 -7 14 -16z m-156 -112 c-15
-5 -22 6 -14 19 6 9 10 9 16 -1 5 -8 4 -15 -2 -18z m156 -41 c3 -5 1 -10 -4
-10 -6 0 -11 5 -11 10 0 6 2 10 4 10 3 0 8 -4 11 -10z m-175 -189 c0 -16 -109
-51 -159 -51 -27 1 -32 3 -20 10 9 5 29 11 45 14 16 3 49 12 74 20 56 18 60
18 60 7z m185 -11 c-4 -6 -13 -9 -20 -6 -7 2 -18 -1 -24 -7 -6 -6 -11 -7 -11
-3 0 5 -7 3 -15 -4 -13 -11 -14 -10 -9 3 3 8 22 19 42 25 41 10 47 8 37 -8z
m45 10 c0 -5 -7 -10 -15 -10 -8 0 -15 5 -15 10 0 6 7 10 15 10 8 0 15 -4 15
-10z"/>
<path d="M1938 1140 c17 -19 15 -28 -5 -33 -14 -4 -12 -5 5 -6 26 -1 29 21 5
40 -15 11 -16 11 -5 -1z"/>
<path d="M1900 1131 c0 -5 -10 -7 -22 -4 -23 4 -23 4 1 -10 l23 -14 -23 -6
c-13 -3 -20 -9 -17 -13 13 -13 46 8 51 31 2 14 0 25 -4 25 -5 0 -9 -4 -9 -9z"/>
<path d="M268 1183 c7 -3 16 -2 19 1 4 3 -2 6 -13 5 -11 0 -14 -3 -6 -6z"/>
<path d="M671 1174 c0 -11 3 -14 6 -6 3 7 2 16 -1 19 -3 4 -6 -2 -5 -13z"/>
<path d="M91 1064 c0 -11 3 -14 6 -6 3 7 2 16 -1 19 -3 4 -6 -2 -5 -13z"/>
<path d="M770 976 c0 -7 10 -26 21 -40 l22 -28 -22 -28 c-29 -40 -26 -56 11
-69 49 -17 78 -50 78 -87 0 -19 17 -65 40 -109 22 -42 40 -82 40 -90 0 -7 -13
-23 -29 -35 l-30 -20 20 -45 c12 -27 17 -54 13 -69 -3 -13 -1 -33 4 -43 6 -10
12 -70 13 -133 2 -63 7 -121 12 -127 6 -8 5 -18 -2 -26 -8 -11 -4 -13 22 -13
17 0 55 -1 82 -2 28 -2 63 -1 79 2 17 3 38 0 48 -5 22 -12 22 -11 0 43 -11 24
-22 75 -26 113 -4 39 -7 75 -8 82 -1 7 -5 10 -9 7 -20 -12 -16 17 6 42 39 44
42 48 64 91 11 22 27 43 36 46 25 10 17 25 -17 32 -36 8 -92 34 -86 40 2 2 64
-4 138 -14 74 -10 139 -16 145 -13 23 14 -122 33 -288 39 -98 3 -175 8 -173
11 3 2 -9 31 -25 64 -17 33 -34 85 -39 115 -10 62 -28 86 -83 114 l-38 20 18
29 c16 28 16 31 -6 75 -23 47 -31 55 -31 31z m373 -482 c9 -3 14 -10 11 -15
-3 -5 1 -6 8 -4 8 3 23 -3 35 -14 11 -11 24 -17 28 -13 20 18 -52 -103 -82
-137 -38 -45 -39 -48 -18 -71 10 -11 16 -42 17 -93 2 -45 7 -77 13 -77 6 0 11
-8 12 -19 3 -37 -145 -35 -176 2 -6 8 -10 38 -9 68 1 30 -1 79 -5 109 -4 30
-9 82 -13 115 -3 33 -10 68 -15 77 -13 24 14 75 43 82 27 5 128 -1 151 -10z"/>
<path d="M1115 450 c-3 -6 1 -7 9 -4 18 7 21 14 7 14 -6 0 -13 -4 -16 -10z"/>
<path d="M1698 963 c7 -3 16 -2 19 1 4 3 -2 6 -13 5 -11 0 -14 -3 -6 -6z"/>
<path d="M1769 955 c-3 -2 -14 -6 -25 -8 -10 -2 -55 -11 -100 -21 -76 -17 -81
-20 -76 -42 5 -29 -2 -28 101 -4 69 17 90 18 122 9 29 -9 52 -9 99 1 33 7 60
16 60 20 0 5 -8 7 -17 5 -10 -2 -18 -4 -18 -6 0 -1 -9 -3 -20 -5 -11 -2 -33
-6 -50 -9 -29 -6 -29 -6 -11 9 11 9 28 17 38 17 10 1 23 3 28 4 6 1 19 3 30 4
11 0 20 5 20 10 0 12 -116 -13 -135 -29 -10 -8 -15 -9 -15 -2 0 6 -6 9 -14 6
-7 -3 -16 2 -19 10 -4 10 -1 16 8 16 7 0 17 5 20 10 6 10 -17 14 -26 5z m-10
-38 c-10 -7 -139 -37 -160 -37 -40 0 -7 17 71 37 41 11 79 16 84 12 5 -5 8
-10 5 -12z"/>
<path d="M135 920 c3 -5 8 -10 11 -10 2 0 4 5 4 10 0 6 -5 10 -11 10 -5 0 -7
-4 -4 -10z"/>
<path d="M725 920 c3 -5 8 -10 11 -10 2 0 4 5 4 10 0 6 -5 10 -11 10 -5 0 -7
-4 -4 -10z"/>
<path d="M1968 913 c7 -3 16 -2 19 1 4 3 -2 6 -13 5 -11 0 -14 -3 -6 -6z"/>
<path d="M1585 840 c3 -5 8 -10 11 -10 2 0 4 5 4 10 0 6 -5 10 -11 10 -5 0 -7
-4 -4 -10z"/>
<path d="M2301 779 c-35 -29 -22 -31 19 -3 19 13 28 24 20 24 -8 -1 -26 -10
-39 -21z"/>
<path d="M1725 770 c-3 -6 1 -7 9 -4 18 7 21 14 7 14 -6 0 -13 -4 -16 -10z"/>
<path d="M1782 759 c-10 -4 -57 -15 -105 -25 -79 -16 -87 -20 -87 -41 0 -28
17 -29 120 -4 62 15 82 16 115 7 33 -10 49 -9 94 6 66 22 74 28 32 25 -17 -1
-31 -6 -31 -12 0 -5 -7 -1 -15 9 -12 16 -19 17 -37 8 -20 -10 -21 -11 -3 -9
11 1 21 -2 22 -8 1 -5 -12 -11 -28 -12 -20 -2 -28 1 -23 9 5 7 -1 9 -19 6 -23
-4 -25 -3 -16 13 5 10 17 23 27 28 15 9 14 10 -5 8 -12 0 -30 -4 -41 -8z m7
-25 c-9 -8 -22 -17 -30 -18 -8 -2 -21 -6 -29 -9 -8 -4 -33 -8 -55 -9 -22 -2
-43 -7 -46 -11 -3 -5 -9 -2 -12 6 -4 12 9 18 61 27 37 7 76 16 87 21 32 12 40
10 24 -7z"/>
<path d="M1600 739 c0 -5 5 -7 10 -4 6 3 10 8 10 11 0 2 -4 4 -10 4 -5 0 -10
-5 -10 -11z"/>
<path d="M1240 730 l-35 -7 38 -2 c20 0 37 4 37 9 0 6 -1 9 -2 9 -2 -1 -19 -5
-38 -9z"/>
<path d="M2255 730 c-3 -5 -1 -10 4 -10 6 0 11 5 11 10 0 6 -2 10 -4 10 -3 0
-8 -4 -11 -10z"/>
<path d="M2340 701 c-47 -16 -121 -40 -165 -54 -97 -31 -180 -66 -172 -73 2
-3 31 6 63 19 33 14 91 34 129 46 174 52 245 77 245 84 0 10 -6 9 -100 -22z"/>
<path d="M1020 709 c0 -5 9 -9 20 -9 11 0 20 2 20 4 0 2 -9 6 -20 9 -11 3 -20
1 -20 -4z"/>
<path d="M1160 710 c0 -5 7 -7 15 -4 8 4 15 8 15 10 0 2 -7 4 -15 4 -8 0 -15
-4 -15 -10z"/>
<path d="M158 698 c5 -5 16 -8 23 -6 8 3 3 7 -10 11 -17 4 -21 3 -13 -5z"/>
<path d="M1748 673 c7 -3 16 -2 19 1 4 3 -2 6 -13 5 -11 0 -14 -3 -6 -6z"/>
<path d="M995 650 l-30 -8 27 -1 c15 0 30 4 33 9 3 6 5 9 3 9 -2 -1 -16 -5
-33 -9z"/>
<path d="M2895 651 c-38 -4 -80 -12 -92 -19 -35 -20 -27 -23 18 -7 49 18 73
19 63 4 -5 -8 -1 -8 14 0 11 6 39 11 61 11 23 0 41 5 41 10 0 6 -8 9 -17 8
-10 -1 -49 -4 -88 -7z"/>
<path d="M2170 570 c-12 -12 -18 -25 -14 -31 10 -17 -4 -39 -21 -33 -8 3 -15
10 -15 16 0 5 -7 16 -15 24 -12 13 -16 9 -26 -28 -16 -55 -16 -55 -63 -62 -22
-4 -42 -9 -45 -13 -7 -7 92 4 158 18 47 10 50 12 46 40 -2 20 1 29 11 29 8 0
23 5 33 12 15 9 17 16 10 30 -13 24 -34 23 -59 -2z m36 -15 c-22 -17 -36 -19
-36 -7 0 14 12 22 34 22 21 -1 21 -1 2 -15z m-88 -47 c20 -20 14 -38 -13 -38
-26 0 -29 7 -19 34 7 19 16 20 32 4z"/>
<path d="M2240 581 c0 -5 9 -13 20 -16 11 -3 20 -10 20 -14 0 -4 7 -16 15 -27
11 -15 14 -16 15 -4 0 8 -11 28 -25 43 -26 27 -45 35 -45 18z"/>
<path d="M2265 532 l19 -23 -29 5 -30 6 30 -14 c38 -18 46 -2 14 28 l-23 21
19 -23z"/>
<path d="M2777 515 c-15 -21 -16 -25 -3 -25 13 0 36 28 36 44 0 13 -16 4 -33
-19z"/>
<path d="M2200 511 c0 -5 -3 -16 -6 -25 -3 -9 -2 -16 4 -16 13 0 23 38 11 46
-5 3 -9 1 -9 -5z"/>
<path d="M2870 500 c-37 -12 -47 -18 -30 -19 26 -1 94 20 106 32 12 11 -17 6
-76 -13z"/>
<path d="M2648 483 c6 -2 18 -2 25 0 6 3 1 5 -13 5 -14 0 -19 -2 -12 -5z"/>
<path d="M1305 440 c-5 -14 -12 -19 -24 -15 -10 3 -23 -1 -30 -8 -9 -12 -8
-14 6 -14 48 2 139 -18 151 -32 11 -14 12 -14 10 4 -2 11 -13 24 -26 30 -12 5
-22 13 -22 17 0 5 -13 8 -30 8 -22 0 -28 4 -24 15 4 8 4 15 1 15 -3 0 -9 -9
-12 -20z"/>
<path d="M1335 450 c3 -5 12 -7 20 -3 21 7 19 13 -6 13 -11 0 -18 -4 -14 -10z"/>
<path d="M1918 438 c-9 -5 -6 -8 9 -8 12 0 24 4 27 8 7 11 -19 11 -36 0z"/>
<path d="M1413 424 c-4 -10 -2 -19 5 -22 7 -2 12 -22 12 -44 0 -22 5 -58 11
-79 11 -35 9 -44 -24 -111 -20 -40 -39 -85 -42 -100 -4 -16 -14 -28 -22 -28
-18 0 -13 -32 6 -38 8 -3 11 0 7 7 -4 6 0 14 8 17 9 3 16 14 16 23 1 26 36 92
44 84 4 -5 7 -1 5 7 -1 8 4 29 11 45 15 36 16 68 6 155 l-8 65 36 0 c20 0 36
-3 36 -6 0 -4 21 -7 48 -8 161 -4 182 -9 182 -41 0 -10 16 -54 36 -97 19 -43
35 -78 34 -78 -1 0 3 -12 9 -26 5 -15 13 -44 16 -65 8 -41 30 -84 44 -84 12 0
-20 104 -81 265 l-54 140 -49 2 c-69 4 -246 23 -268 29 -10 3 -20 -1 -24 -12z"/>
<path d="M2796 377 c3 -10 9 -15 12 -12 3 3 0 11 -7 18 -10 9 -11 8 -5 -6z"/>
<path d="M1236 359 c-26 -20 -26 -22 -10 -40 9 -11 12 -19 6 -19 -6 0 -14 5
-17 10 -11 17 -22 11 -34 -18 -16 -39 -5 -85 19 -77 10 3 21 1 25 -5 3 -6 11
-8 16 -4 5 3 6 10 3 16 -4 6 -3 9 2 5 15 -9 37 14 64 65 29 56 39 55 16 -2
-22 -56 -20 -120 5 -120 6 0 5 8 -1 19 -18 34 -12 60 15 67 14 3 22 10 19 15
-3 5 -10 7 -15 4 -5 -4 -9 1 -9 9 0 18 28 21 50 5 12 -9 11 -10 -5 -5 -18 5
-18 4 -4 -6 9 -7 14 -19 12 -25 -3 -7 3 -13 12 -13 15 0 17 6 12 36 -6 34 -44
90 -55 79 -2 -2 -11 2 -19 10 -16 17 -58 21 -48 5 3 -5 1 -10 -4 -10 -6 0 -11
5 -11 10 0 16 -15 12 -44 -11z m94 4 c0 -5 -5 -15 -10 -23 -8 -12 -10 -11 -10
8 0 12 5 22 10 22 6 0 10 -3 10 -7z m-43 -27 l26 -24 -23 -33 -23 -32 -10 24
c-5 13 -11 34 -13 47 -2 20 -1 22 13 10 15 -12 15 -11 4 10 -15 29 -7 28 26
-2z m87 -11 c-4 -8 -10 -15 -15 -15 -4 0 -6 7 -3 15 4 8 10 15 15 15 4 0 6 -7
3 -15z m-131 -65 c-8 -31 -23 -34 -23 -6 0 16 6 26 14 26 9 0 12 -7 9 -20z
m-36 4 c-3 -3 -12 -4 -19 -1 -8 3 -5 6 6 6 11 1 17 -2 13 -5z"/>
<path d="M2820 346 c0 -2 8 -10 18 -17 15 -13 16 -12 3 4 -13 16 -21 21 -21
13z"/>
<path d="M2860 296 c0 -2 8 -10 18 -17 15 -13 16 -12 3 4 -13 16 -21 21 -21
13z"/>
<path d="M1371 243 c-1 -6 4 -15 11 -19 7 -5 4 -10 -11 -16 -15 -5 -21 -14
-17 -23 3 -8 1 -15 -4 -15 -6 0 -10 -7 -10 -15 0 -8 4 -15 9 -15 17 0 59 44
66 68 5 17 2 22 -13 22 -11 0 -23 6 -25 13 -4 9 -6 9 -6 0z m12 -57 c4 -10 1
-13 -9 -9 -15 6 -19 23 -5 23 5 0 11 -7 14 -14z"/>
<path d="M262 220 c0 -14 2 -19 5 -12 2 6 2 18 0 25 -3 6 -5 1 -5 -13z"/>
<path d="M1265 210 c-19 -21 -45 -27 -45 -10 0 6 -4 10 -9 10 -8 0 -9 -33 -2
-59 0 -3 7 3 14 12 11 16 13 16 24 -2 11 -18 10 -20 -5 -15 -14 5 -15 4 -2 -5
22 -16 90 -14 90 2 0 20 -22 37 -47 37 -13 0 -23 5 -23 10 0 6 7 10 15 10 8 0
15 7 15 15 0 20 -3 19 -25 -5z m22 -62 c-3 -8 -6 -5 -6 6 -1 11 2 17 5 13 3
-3 4 -12 1 -19z"/>
<path d="M2246 198 c4 -11 -3 -21 -23 -32 -15 -8 -22 -15 -15 -16 7 0 22 5 33
10 13 7 19 7 19 0 0 -5 -4 -10 -10 -10 -5 0 -10 -5 -10 -12 0 -6 3 -8 7 -5 3
4 13 1 21 -6 13 -10 14 -8 8 11 -5 15 -4 21 6 19 7 -2 10 -2 6 0 -15 8 -8 23
10 23 14 0 15 2 2 10 -9 6 -18 6 -24 0 -6 -6 -14 -3 -23 8 -12 15 -13 15 -7 0z"/>
<path d="M2380 170 c0 -12 8 -12 35 0 18 8 17 9 -7 9 -16 1 -28 -3 -28 -9z"/>
<path d="M1200 136 c0 -2 7 -7 16 -10 8 -3 12 -2 9 4 -6 10 -25 14 -25 6z"/>
<path d="M1180 117 c0 -9 9 -22 21 -30 15 -11 17 -16 7 -20 -7 -3 1 -5 17 -5
75 -1 105 -5 99 -14 -3 -5 3 -4 14 3 24 15 46 59 35 69 -4 3 -21 3 -38 -1
l-30 -7 28 -1 c16 0 27 -6 25 -12 -2 -6 -7 -10 -11 -10 -4 1 -19 1 -33 1 -14
0 -23 4 -20 8 3 5 -9 7 -27 4 -25 -3 -29 -1 -17 8 12 8 9 9 -13 4 -16 -4 -33
-1 -42 6 -12 10 -15 10 -15 -3z"/>
<path d="M830 81 c-40 -26 -101 -81 -89 -81 3 0 23 16 45 35 22 21 46 34 56
31 10 -2 16 1 15 7 -1 6 4 12 11 13 6 1 17 2 22 3 15 2 12 21 -2 21 -7 0 -33
-13 -58 -29z"/>
<path d="M911 58 c9 -16 9 -23 0 -26 -13 -4 -15 -22 -2 -22 13 0 23 34 15 54
-3 9 -10 16 -15 16 -6 0 -4 -10 2 -22z"/>
<path d="M1278 23 c7 -3 16 -2 19 1 4 3 -2 6 -13 5 -11 0 -14 -3 -6 -6z"/>
<path d="M1220 16 c0 -2 7 -7 16 -10 8 -3 12 -2 9 4 -6 10 -25 14 -25 6z"/>
</g>
</svg>
