<?xml version="1.0" standalone="no"?>
<!DOCTYPE svg PUBLIC "-//W3C//DTD SVG 20010904//EN"
 "http://www.w3.org/TR/2001/REC-SVG-20010904/DTD/svg10.dtd">
<svg version="1.0" xmlns="http://www.w3.org/2000/svg"
 width="750.000000pt" height="1050.000000pt" viewBox="0 0 750.000000 1050.000000"
 preserveAspectRatio="xMidYMid meet">
<metadata>
Created by potrace 1.16, written by Peter Selinger 2001-2019
</metadata>
<g transform="translate(0.000000,1050.000000) scale(0.100000,-0.100000)"
fill="#000000" stroke="none">
<path d="M3 10168 c2 -204 8 -354 16 -388 20 -95 47 -327 40 -346 -4 -13 -8
-5 -11 26 -3 25 -13 104 -24 175 -19 130 -19 122 -22 -3044 -1 -1746 -1 -3176
1 -3178 2 -2 19 2 37 8 l33 12 -6 211 c-7 249 5 491 27 561 8 28 26 62 40 76
13 14 26 34 28 45 2 11 31 34 73 57 39 21 77 46 85 57 8 10 58 44 110 76 52
31 113 69 135 84 51 35 375 230 382 230 7 0 90 58 107 76 16 15 15 38 -4 94
-5 14 -11 69 -14 122 -3 60 -11 109 -21 128 -9 18 -16 56 -16 90 -1 38 -7 71
-20 94 -21 39 -37 146 -48 316 -3 58 -10 110 -14 116 -4 7 -1 27 7 45 8 19 11
40 6 49 -8 15 -27 145 -34 230 -5 62 -54 434 -65 495 -5 28 -14 93 -21 145
-15 126 -38 291 -51 365 -6 33 -15 94 -19 135 -5 41 -13 95 -19 120 -5 25 -15
98 -21 163 -6 65 -19 151 -29 190 -11 40 -22 98 -26 130 -4 32 -13 73 -20 90
-7 18 -10 40 -5 52 9 24 -21 279 -50 430 -12 61 -26 155 -30 210 -5 55 -16
136 -26 180 -9 44 -18 100 -20 125 -8 90 -36 276 -45 295 -5 11 -8 29 -7 40 5
37 -13 160 -28 193 -10 22 -15 55 -12 93 1 32 0 59 -3 59 -3 0 -9 30 -13 67
-4 37 -11 72 -16 78 -4 5 -10 53 -13 105 -3 52 -8 109 -11 125 -3 17 -7 54
-10 83 -3 29 -10 61 -16 71 -5 10 -7 34 -3 53 3 20 0 69 -7 109 -19 121 -1
109 -166 109 l-145 0 4 -332z"/>
<path d="M7325 10435 c-3 -35 -4 -69 0 -74 3 -6 12 -135 20 -288 21 -404 35
-648 46 -818 5 -82 14 -316 19 -520 5 -213 16 -423 25 -495 18 -151 47 -591
41 -623 -3 -12 1 -71 8 -132 12 -95 14 100 15 1453 l1 1562 -84 0 -84 0 -7
-65z"/>
<path d="M3620 9783 c-30 -7 -107 -24 -170 -37 -63 -14 -146 -36 -185 -51 -72
-28 -271 -122 -290 -137 -5 -4 -53 -36 -105 -71 -154 -102 -172 -116 -221
-165 -44 -45 -106 -154 -147 -257 -26 -65 -72 -226 -72 -251 0 -11 -6 -28 -13
-39 -8 -11 -19 -60 -26 -110 -7 -49 -17 -113 -22 -142 -20 -102 -11 -391 13
-436 14 -26 3 -32 -24 -13 -13 9 -43 16 -69 16 -43 0 -51 -4 -84 -42 l-37 -43
6 -85 c11 -171 100 -491 177 -640 16 -30 29 -60 29 -67 0 -6 15 -27 33 -46 40
-43 106 -65 148 -50 l29 11 1 -76 c0 -79 1 -98 19 -401 5 -95 10 -310 10 -476
l0 -304 -99 -100 c-113 -115 -126 -141 -119 -241 4 -54 15 -87 57 -173 28 -59
51 -111 51 -116 0 -6 13 -24 30 -41 17 -17 30 -39 30 -49 0 -9 12 -28 26 -42
14 -13 42 -46 62 -74 100 -136 273 -260 461 -330 113 -42 132 -46 211 -46 106
0 123 2 325 51 88 22 243 55 345 74 295 56 408 104 524 221 118 118 131 187
54 274 -56 64 -65 86 -45 109 21 23 21 32 2 32 -23 0 -48 45 -37 67 8 13 5 34
-7 71 -10 29 -21 55 -25 59 -9 9 -7 98 3 146 6 23 17 84 27 136 18 101 30 120
168 271 87 95 202 242 249 320 53 87 90 190 146 415 53 215 70 302 86 445 12
107 78 324 104 343 29 21 31 43 5 81 -23 33 -24 40 -13 79 6 23 14 49 19 57 7
15 21 69 25 100 1 8 5 22 8 30 33 81 61 416 38 444 -5 6 -15 40 -22 76 -6 36
-20 83 -30 105 -10 22 -27 64 -39 93 -27 72 -101 212 -111 212 -4 0 -11 10
-15 23 -18 58 -307 388 -404 460 -19 14 -48 37 -64 51 -16 14 -35 26 -41 26
-7 0 -25 12 -41 27 -16 15 -65 46 -109 69 -44 23 -100 53 -125 68 -89 52 -193
77 -370 92 -118 9 -179 10 -213 2 -29 -6 -52 -6 -60 -1 -7 6 -33 4 -67 -4z
m1340 -816 c8 -2 23 -7 33 -10 9 -4 23 -9 31 -11 8 -3 22 -26 31 -53 10 -26
24 -62 31 -80 8 -17 14 -38 14 -47 0 -9 4 -16 8 -16 8 0 32 -65 32 -85 0 -24
-28 22 -40 65 -15 53 -36 65 -66 35 -21 -21 -37 -19 -66 8 -25 23 -25 23 -41
4 -15 -18 -16 -18 -32 12 -8 17 -15 37 -14 44 4 36 -2 56 -16 51 -15 -6 -21 7
-9 19 10 10 52 -22 58 -46 9 -34 16 -15 9 27 -4 24 -10 35 -18 32 -12 -4 -25
22 -25 53 0 13 33 12 80 -2z m-1810 -1588 c-12 -8 -10 -9 8 -4 44 13 168 -67
156 -99 -3 -8 -1 -17 5 -21 6 -3 11 -15 11 -26 0 -13 7 -19 23 -20 21 -1 21
-1 -3 -8 -14 -4 -30 -4 -37 1 -17 13 -122 16 -128 3 -3 -6 -7 -5 -11 3 -3 7
-12 19 -21 27 -12 12 -12 16 -1 19 42 13 43 14 26 15 -11 1 -18 9 -18 21 0 11
-9 29 -20 40 -28 28 -26 60 3 60 18 0 19 -2 7 -11z m740 -803 c19 -1 52 -3 72
-4 20 -1 44 -9 52 -18 10 -10 16 -11 16 -3 0 15 93 4 134 -17 16 -8 38 -11 49
-8 14 4 18 2 15 -7 -3 -8 -15 -13 -27 -12 -11 2 -21 -2 -21 -7 0 -15 -111 -12
-142 4 -16 8 -28 10 -28 5 0 -10 -19 -7 -130 23 -125 34 -140 39 -140 49 0 7
21 8 57 3 31 -4 73 -8 93 -8z"/>
<path d="M4366 2845 c-6 -17 -36 -21 -36 -5 0 7 -6 7 -18 1 -18 -9 -99 -22
-149 -23 -13 0 -23 -4 -23 -9 0 -5 -7 -9 -15 -9 -8 0 -15 -6 -15 -14 0 -11
-16 -13 -70 -11 -38 2 -70 -1 -70 -5 0 -12 -38 -23 -80 -24 -19 -1 -41 -5 -47
-9 -21 -13 -15 -37 10 -38 16 -1 18 -2 5 -6 -21 -5 -24 -23 -4 -23 7 0 29 7
48 15 24 10 38 11 45 4 8 -8 13 -7 17 0 4 6 16 11 27 11 11 0 17 -4 14 -10
-10 -15 3 -12 25 7 26 22 26 36 0 28 -11 -4 -20 -2 -20 4 0 14 57 14 65 1 4
-6 23 -7 46 -4 27 5 39 3 39 -6 0 -8 12 -10 43 -5 62 10 78 15 72 26 -4 5 0 9
7 9 8 0 31 16 52 35 21 19 35 35 31 35 -4 0 3 9 16 20 19 15 20 19 8 20 -9 0
-19 -7 -23 -15z"/>
<path d="M4421 2621 c-7 -5 -21 -6 -31 -4 -10 3 -27 -4 -39 -16 -12 -12 -21
-17 -21 -11 0 17 -164 -3 -176 -21 -3 -5 -20 -9 -38 -9 -18 0 -41 -7 -52 -15
-10 -8 -23 -14 -29 -15 -5 0 -3 5 5 11 12 9 12 10 -3 5 -10 -3 -25 -6 -33 -6
-9 0 -13 -3 -11 -7 3 -5 -15 -9 -40 -9 -56 -2 -66 -12 -58 -56 6 -31 10 -35
36 -34 16 1 29 5 29 9 0 5 24 6 53 3 33 -4 45 -3 32 3 -11 5 -23 7 -27 4 -5
-2 -8 3 -8 11 0 9 -6 13 -13 10 -8 -3 -20 2 -27 11 -7 8 -9 16 -4 16 38 6 53
5 48 -2 -3 -5 2 -9 10 -9 8 0 18 5 21 10 3 6 12 10 18 10 7 0 6 -4 -3 -10 -13
-8 -12 -10 4 -10 11 0 16 -5 13 -14 -4 -11 2 -12 35 -4 25 5 45 5 52 -1 8 -7
36 -4 83 8 40 10 75 16 78 12 4 -3 5 1 3 9 -1 8 2 14 8 15 12 0 114 99 114
109 0 9 -13 7 -29 -3z"/>
<path d="M4460 2393 c-8 -2 -24 -8 -35 -13 -22 -9 -96 -24 -107 -22 -4 1 -36
-7 -70 -17 -35 -11 -110 -30 -168 -42 -135 -27 -131 -26 -124 -43 3 -8 1 -17
-5 -21 -16 -10 -13 -52 4 -59 22 -8 118 3 129 14 6 6 20 10 32 10 22 0 176 36
204 47 8 3 21 5 29 4 8 -1 17 3 22 10 6 10 11 10 23 -1 14 -11 16 -10 10 3 -3
10 13 35 50 73 31 31 56 58 56 60 0 5 -32 4 -50 -3z"/>
<path d="M4510 2159 c-14 -5 -44 -14 -68 -19 -23 -6 -40 -15 -37 -20 3 -4 -4
-6 -15 -3 -32 8 -120 -17 -120 -34 0 -11 -6 -14 -22 -9 -20 5 -135 -12 -148
-21 -2 -2 2 -9 10 -14 12 -9 10 -9 -5 -3 -51 19 -95 4 -95 -33 0 -64 8 -73 58
-67 26 3 51 8 56 12 6 3 19 6 30 7 45 4 96 18 96 27 0 5 4 7 9 3 6 -3 29 -1
53 5 24 6 62 16 86 21 23 6 39 15 36 20 -3 6 3 13 15 16 15 4 21 13 21 32 0
20 2 23 10 11 8 -13 10 -12 10 3 0 9 4 17 8 17 5 0 18 14 30 30 24 32 22 33
-18 19z"/>
<path d="M6310 1918 c-1 -78 -107 -308 -201 -438 -94 -128 -244 -239 -326
-240 -41 -1 -62 -21 -56 -53 5 -27 -11 -38 -20 -14 -3 6 -6 7 -6 1 -1 -6 -13
-9 -28 -7 -16 3 -41 -1 -58 -7 l-30 -12 25 -10 c26 -10 57 -10 290 -3 103 3
149 9 192 24 50 18 72 20 175 15 103 -6 127 -4 189 15 l72 21 -24 75 c-13 42
-24 81 -24 87 0 7 -11 48 -25 92 -66 216 -99 337 -110 407 -3 19 -12 44 -20
55 -14 18 -14 18 -15 -8z"/>
<path d="M4550 1920 c-20 -11 -95 -31 -265 -70 -144 -33 -171 -44 -141 -56 14
-5 15 -9 4 -15 -17 -11 -31 -11 -24 0 3 5 -7 11 -24 13 -19 3 -31 0 -35 -9 -3
-11 1 -13 16 -8 15 5 20 3 17 -6 -6 -19 -58 -23 -58 -5 0 8 -4 17 -9 21 -5 3
-9 -17 -8 -45 0 -32 4 -47 10 -41 6 6 17 5 29 -2 14 -9 20 -9 26 -1 4 7 35 15
70 19 34 4 69 13 76 21 8 8 16 9 18 4 2 -5 14 -7 26 -3 18 4 21 8 10 15 -8 6
2 7 29 3 25 -4 57 -1 80 6 49 17 50 18 33 29 -12 7 -9 10 12 10 25 0 34 8 116
96 31 34 27 44 -8 24z"/>
<path d="M4585 1680 c-3 -5 -17 -10 -30 -10 -13 0 -26 -4 -29 -9 -3 -4 -20
-11 -38 -15 -24 -5 -29 -9 -19 -15 9 -6 -7 -8 -41 -5 -45 3 -59 0 -73 -16 -14
-15 -21 -17 -32 -9 -7 7 -16 9 -20 5 -3 -3 0 -6 8 -7 22 -1 -22 -17 -49 -18
-13 -1 -21 3 -18 8 4 5 -12 5 -37 0 -69 -15 -73 -18 -52 -33 18 -13 17 -15
-13 -46 -18 -17 -32 -33 -32 -35 0 -1 16 5 36 15 20 10 42 16 50 13 8 -3 17 2
20 11 8 21 24 20 24 -1 0 -14 2 -15 9 -4 5 8 16 11 29 7 11 -4 23 -2 27 4 4 7
19 9 37 5 18 -4 28 -3 25 2 -3 5 7 7 24 5 16 -2 29 0 29 6 0 6 15 14 34 17 32
6 79 44 135 108 14 15 19 27 13 27 -6 0 -14 -4 -17 -10z"/>
<path d="M2400 1294 c0 -13 -44 -52 -104 -94 -41 -28 -41 -23 9 -143 35 -83
36 -92 30 -161 -6 -63 -4 -78 15 -115 19 -38 22 -62 26 -239 2 -108 7 -220 10
-247 4 -35 1 -62 -9 -86 -15 -36 -15 -36 19 -63 25 -20 34 -35 34 -56 0 -23 5
-30 20 -30 10 0 42 -9 69 -20 61 -24 245 -37 267 -19 8 6 46 15 85 19 58 6 76
5 100 -9 16 -9 29 -19 29 -23 0 -5 5 -8 10 -8 15 0 12 38 -5 64 -9 13 -18 40
-20 60 -5 40 0 42 68 27 20 -5 37 -5 37 -1 0 9 -60 20 -110 20 l-36 0 -12 146
c-7 80 -18 157 -23 172 -6 15 -14 47 -18 72 -5 36 -11 45 -30 50 -20 5 -25 12
-26 41 -3 56 11 82 39 77 19 -4 26 0 30 17 3 12 26 50 51 84 25 34 70 105 99
159 44 78 58 96 75 94 19 -3 41 22 41 47 0 5 -35 17 -77 27 -47 10 -89 26
-106 40 -16 13 -35 24 -42 24 -24 0 -61 21 -73 41 -11 17 -9 21 10 28 15 6
-67 11 -230 13 -185 2 -252 0 -252 -8z"/>
<path d="M3537 1068 c-10 -35 -8 -81 4 -98 8 -12 9 -10 4 7 -7 27 11 40 20 14
3 -10 7 -73 8 -140 1 -67 5 -121 9 -121 3 0 4 10 2 23 -2 12 3 4 11 -18 11
-28 15 -63 13 -115 -3 -78 -17 -114 -103 -265 -18 -33 -49 -104 -67 -158 -25
-73 -37 -97 -50 -97 -10 0 -18 5 -18 12 0 6 -3 8 -7 4 -8 -7 -6 -68 3 -98 5
-17 47 -18 691 -18 648 0 685 1 678 17 -3 10 -20 70 -37 133 -17 63 -46 152
-64 197 -19 45 -63 162 -100 260 -104 285 -137 366 -157 396 l-18 27 -172 0
c-95 0 -212 5 -262 10 -119 12 -323 39 -356 46 -21 5 -27 2 -32 -18z"/>
<path d="M2950 289 c0 -11 9 -32 19 -46 11 -13 18 -30 15 -37 -7 -17 110 -38
126 -22 7 7 10 3 10 -11 0 -18 7 -22 45 -25 25 -2 45 0 45 4 0 5 7 8 16 8 9 0
12 -5 8 -12 -5 -7 0 -9 14 -6 11 3 42 2 68 -3 34 -6 50 -6 55 2 4 6 11 9 17 5
5 -3 13 2 16 11 4 9 1 20 -6 25 -10 6 -9 8 4 8 10 0 22 16 32 47 22 63 20 70
-8 44 -16 -15 -22 -29 -18 -43 4 -17 2 -20 -11 -15 -9 3 -19 2 -22 -3 -3 -5
-19 -5 -38 0 -17 5 -54 11 -82 15 -27 3 -67 10 -87 15 -32 7 -38 5 -39 -9 0
-13 -2 -13 -6 -1 -9 23 -24 30 -73 30 -33 0 -50 6 -63 20 -22 26 -37 25 -37
-1z"/>
</g>
</svg>
